PathFileType	4	(X/Y/Z)
DataRate	CameraRate	NumFrames	NumMarkers	Units	OrigDataRate	OrigDataStartFrame	OrigNumFrames	
	120.0	120.0	8	39	mm	120.0	155	206
Frame#	Time	midhip	hip_r	hip_l	knee_r	knee_l	ankle_r	ankle_l	midasis	asis_r	asis_l	psis_r	psis_l	epicondLat_r	epicondLat_l	epicondMed_r	epicondMed_l	malleolusLat_r	malleolusLat_l	malleolusMedv_r	malleolusMedv_l	heel_r	heel_l	sternalnotch	xyphoidprocess	neck	subclavicle_r	subclavicle_l	toe_r	toe_l	thighwand_r	thighwand_l	upperleg1_r	upperleg1_l	upperleg2_r	upperleg2_l	shankwand_r	shankwand_l	lowerleg1_r	lowerleg1_l
	X1	Y1	Z1	X2	Y2	Z2	X3	Y3	Z3	X4	Y4	Z4	X5	Y5	Z5	X6	Y6	Z6	X7	Y7	Z7	X8	Y8	Z8	X9	Y9	Z9	X10	Y10	Z10	X11	Y11	Z11	X12	Y12	Z12	X13	Y13	Z13	X14	Y14	Z14	X15	Y15	Z15	X16	Y16	Z16	X17	Y17	Z17	X18	Y18	Z18	X19	Y19	Z19	X20	Y20	Z20	X21	Y21	Z21	X22	Y22	Z22	X23	Y23	Z23	X24	Y24	Z24	X25	Y25	Z25	X26	Y26	Z26	X27	Y27	Z27	X28	Y28	Z28	X29	Y29	Z29	X30	Y30	Z30	X31	Y31	Z31	X32	Y32	Z32	X33	Y33	Z33	X34	Y34	Z34	X35	Y35	Z35	X36	Y36	Z36	X37	Y37	Z37	X38	Y38	Z38	X39	Y39	Z39

	155	1.29167	1425.431	821.778	-264.218	1419.423	810.117	-194.974	1412.357	814.913	-346.862	1429.276	436.869	-160.435	1425.694	436.862	-388.206	1416.163	64.718	-125.555	1397.834	67.507	-422.834	1511.904	881.807	-270.087	1513.499	878.190	-152.863	1510.308	885.424	-387.311	1319.763	950.643	-232.919	1317.420	947.368	-287.699	1430.377	442.426	-100.703	1430.357	443.528	-447.652	1432.111	433.299	-216.759	1429.588	442.571	-323.534	1395.837	68.857	-89.034	1383.058	72.280	-461.858	1428.827	68.742	-156.787	1401.969	76.061	-394.027	1375.995	33.542	-157.253	1347.421	47.162	-412.067	1500.660	1322.269	-270.697	1544.852	1255.535	-274.402	1378.510	1379.506	-261.097	1507.202	1327.997	-219.123	1500.665	1323.462	-324.050	1508.437	40.879	-67.215	1500.923	43.840	-457.434	1586.500	576.305	-181.819	1461.483	582.668	-519.357	1517.266	631.693	-134.795	1400.813	627.348	-456.288	1505.618	544.700	-126.235	1408.916	540.332	-451.265	1382.815	151.573	-28.296	1493.615	188.109	-405.849	1389.968	157.599	-71.514	1452.104	187.729	-413.987
	156	1.30000	1425.370	821.868	-264.619	1419.289	810.124	-194.918	1412.207	814.800	-346.809	1429.265	436.899	-160.431	1425.635	436.912	-388.226	1416.194	64.809	-125.540	1397.754	67.455	-422.791	1511.786	881.721	-270.098	1513.393	878.197	-152.891	1510.178	885.245	-387.305	1319.694	950.635	-232.900	1317.196	947.388	-287.759	1430.365	442.448	-100.698	1430.306	443.593	-447.669	1431.979	433.307	-216.732	1430.098	441.899	-323.883	1395.867	68.948	-89.020	1382.983	72.221	-461.817	1428.923	68.686	-156.752	1402.266	75.944	-394.003	1376.015	33.540	-157.296	1346.718	47.608	-411.958	1500.519	1322.164	-270.721	1544.727	1255.434	-274.318	1378.331	1379.411	-261.131	1506.938	1327.895	-219.241	1500.649	1323.354	-323.968	1508.427	40.919	-67.221	1500.925	43.807	-457.432	1586.512	576.348	-181.830	1461.398	582.687	-519.445	1517.292	631.714	-134.832	1400.823	627.039	-455.929	1505.552	544.628	-126.229	1408.973	540.137	-451.227	1382.768	151.592	-28.287	1493.634	188.089	-405.850	1389.983	157.610	-71.651	1451.973	188.010	-413.696
	157	1.30833	1425.133	821.828	-264.946	1419.152	810.150	-194.823	1412.003	814.646	-346.716	1429.242	436.935	-160.407	1425.572	436.951	-388.238	1416.197	64.915	-125.534	1397.671	67.412	-422.786	1511.651	881.610	-270.132	1513.309	878.228	-152.936	1509.992	884.992	-387.328	1319.609	950.641	-232.877	1316.973	947.419	-287.795	1430.351	442.474	-100.673	1430.246	443.654	-447.679	1431.793	433.252	-216.281	1430.352	441.313	-324.136	1395.875	69.051	-89.012	1382.902	72.176	-461.814	1429.215	68.648	-156.618	1402.772	75.399	-394.173	1376.023	33.532	-157.320	1345.985	48.092	-411.847	1500.441	1322.149	-270.641	1544.689	1255.439	-274.107	1378.219	1379.344	-261.185	1506.811	1327.953	-219.148	1500.619	1323.267	-323.903	1508.404	40.979	-67.242	1500.944	43.771	-457.434	1586.508	576.419	-181.828	1461.273	582.742	-519.526	1517.409	631.786	-134.868	1400.864	626.746	-455.559	1505.574	544.615	-126.071	1408.916	540.043	-451.141	1382.671	151.620	-28.282	1493.623	188.183	-405.902	1390.095	157.609	-71.716	1451.739	187.811	-413.437
	158	1.31667	1424.800	821.737	-265.253	1419.030	810.193	-194.722	1411.797	814.489	-346.617	1429.206	436.964	-160.354	1425.520	436.977	-388.248	1416.176	65.010	-125.535	1397.588	67.380	-422.820	1511.524	881.501	-270.180	1513.248	878.276	-152.983	1509.801	884.727	-387.376	1319.515	950.668	-232.843	1316.733	947.466	-287.807	1430.325	442.495	-100.620	1430.192	443.702	-447.687	1431.657	433.370	-216.280	1430.382	441.379	-323.998	1395.859	69.141	-89.009	1382.817	72.147	-461.847	1429.503	68.649	-156.475	1404.320	74.103	-394.670	1376.018	33.524	-157.319	1345.323	48.552	-411.748	1500.402	1322.177	-270.550	1544.643	1255.462	-274.001	1378.103	1379.405	-261.236	1506.862	1328.053	-218.974	1500.487	1323.220	-323.915	1508.373	41.042	-67.272	1500.966	43.742	-457.440	1586.486	576.521	-181.804	1461.134	582.817	-519.600	1517.501	631.830	-134.870	1400.889	626.745	-455.547	1505.563	544.627	-126.070	1408.852	539.991	-451.058	1382.563	151.652	-28.282	1493.577	188.363	-405.978	1390.201	157.600	-71.712	1450.970	187.712	-412.478
	159	1.32500	1424.515	821.704	-265.512	1418.936	810.240	-194.642	1411.641	814.358	-346.539	1429.165	436.980	-160.273	1425.480	436.980	-388.259	1416.162	65.085	-125.537	1397.501	67.355	-422.880	1511.430	881.417	-270.223	1513.201	878.331	-153.017	1509.659	884.504	-387.429	1319.420	950.717	-232.795	1316.486	947.518	-287.787	1430.294	442.511	-100.539	1430.148	443.723	-447.696	1431.743	433.362	-216.457	1430.591	441.897	-323.502	1395.849	69.207	-89.007	1382.726	72.129	-461.905	1429.701	68.673	-156.378	1405.176	73.480	-394.986	1376.003	33.520	-157.294	1344.823	48.942	-411.651	1500.352	1322.237	-270.519	1544.608	1255.534	-274.013	1377.980	1379.441	-261.280	1506.941	1328.170	-218.880	1500.301	1323.225	-323.970	1508.343	41.084	-67.305	1500.980	43.721	-457.445	1586.454	576.646	-181.761	1461.001	582.893	-519.656	1517.398	631.828	-134.920	1400.832	626.955	-455.697	1505.490	544.667	-126.146	1408.874	539.853	-450.882	1382.479	151.672	-28.284	1493.522	188.538	-406.033	1390.259	157.593	-71.691	1450.400	187.870	-411.883
	160	1.33333	1424.298	821.737	-265.812	1418.883	810.274	-194.605	1411.568	814.283	-346.503	1429.119	436.982	-160.170	1425.456	436.954	-388.270	1416.165	65.137	-125.541	1397.432	67.334	-422.939	1511.380	881.379	-270.250	1513.167	878.377	-153.030	1509.594	884.381	-387.469	1319.339	950.771	-232.745	1316.218	947.570	-287.728	1430.257	442.523	-100.438	1430.118	443.704	-447.706	1432.005	433.330	-216.630	1431.036	442.279	-323.072	1395.857	69.247	-89.007	1382.652	72.114	-461.960	1429.740	68.802	-156.364	1404.989	73.572	-395.005	1375.981	33.519	-157.250	1344.555	49.208	-411.531	1500.274	1322.386	-270.496	1544.572	1255.714	-274.055	1377.876	1379.485	-261.273	1506.996	1328.365	-218.814	1500.081	1323.331	-324.012	1508.327	41.096	-67.330	1500.983	43.712	-457.447	1586.418	576.802	-181.719	1460.880	582.967	-519.685	1517.231	631.786	-134.974	1400.694	627.085	-455.675	1505.486	544.893	-126.243	1408.929	539.756	-450.646	1382.444	151.677	-28.289	1493.476	188.670	-406.057	1390.226	157.592	-71.587	1450.303	187.911	-412.024
	161	1.34167	1424.087	821.804	-266.376	1418.870	810.279	-194.611	1411.577	814.267	-346.511	1429.059	436.974	-160.056	1425.442	436.897	-388.280	1416.170	65.155	-125.549	1397.395	67.314	-422.976	1511.370	881.386	-270.252	1513.140	878.399	-153.017	1509.599	884.373	-387.488	1319.271	950.795	-232.701	1315.880	947.637	-287.653	1430.211	442.534	-100.325	1430.103	443.646	-447.717	1431.911	433.580	-217.112	1431.487	442.065	-323.152	1395.871	69.249	-89.009	1382.612	72.099	-461.996	1429.613	69.031	-156.433	1405.012	73.536	-395.050	1375.960	33.519	-157.200	1344.520	49.322	-411.394	1500.111	1322.440	-270.467	1544.341	1255.734	-274.213	1377.757	1379.623	-261.209	1506.940	1328.336	-218.729	1499.812	1323.465	-324.040	1508.328	41.076	-67.337	1500.976	43.717	-457.447	1586.381	576.979	-181.689	1460.783	583.031	-519.685	1517.141	631.721	-134.945	1400.548	626.952	-455.427	1505.342	545.023	-126.411	1408.959	539.738	-450.547	1382.461	151.683	-28.298	1493.435	188.779	-406.059	1390.105	157.586	-71.382	1450.303	187.911	-412.024
	162	1.35000	1423.731	821.813	-267.300	1418.884	810.255	-194.656	1411.653	814.294	-346.558	1428.998	436.964	-159.942	1425.423	436.833	-388.292	1416.174	65.145	-125.558	1397.366	67.304	-422.989	1511.385	881.427	-270.233	1513.108	878.399	-152.979	1509.663	884.455	-387.486	1319.196	950.778	-232.659	1315.437	947.732	-287.608	1430.165	442.550	-100.214	1430.098	443.575	-447.728	1431.402	433.942	-217.527	1431.909	441.156	-323.844	1395.884	69.225	-89.011	1382.590	72.090	-462.012	1429.515	69.237	-156.485	1404.585	74.005	-394.862	1375.949	33.520	-157.164	1344.596	49.367	-411.258	1499.843	1322.403	-270.426	1543.991	1255.651	-274.330	1377.666	1379.664	-261.177	1506.635	1328.138	-218.677	1499.592	1323.585	-323.986	1508.341	41.031	-67.330	1500.961	43.736	-457.444	1586.344	577.136	-181.663	1460.713	583.074	-519.660	1517.115	631.685	-134.918	1400.579	626.725	-454.836	1505.022	545.024	-126.531	1408.972	539.791	-450.552	1382.518	151.689	-28.303	1493.412	188.807	-406.033	1390.047	157.567	-71.147	1450.663	188.148	-412.248
